# xmcd
#
# Track frame offsets: 
#        150
#        20973
#        41031
#        61122
#        82710
#        105324
#        122650
#        141953
#        173813
#        190509
#        207252
#        222528
#
# Disc length: 3126 seconds
#
# Revision: 0
# Processed by: cddbd v1.5.2PL0 Copyright (c) Steve Scherf et al.
# Submitted via: ExactAudioCopyFreeDBPlugin 1.0
#
DISCID=a30c340c
DTITLE=Albert Cummings - Someone Like You
DYEAR=2015
DGENRE=Blues
TTITLE0=No Doubt
TTITLE1=I Find You
TTITLE2=Up Your Sleeve
TTITLE3=Movin' On
TTITLE4=So Strong
TTITLE5=Finally In Love
TTITLE6=Make Up Your Mind
TTITLE7=Little Bird
TTITLE8=Meatlocker
TTITLE9=I'm In Love With You
TTITLE10=Old Dog
TTITLE11=Stay Away From My Sister
EXTD=
EXTT0=
EXTT1=
EXTT2=
EXTT3=
EXTT4=
EXTT5=
EXTT6=
EXTT7=
EXTT8=
EXTT9=
EXTT10=
EXTT11=
PLAYORDER=
